<svg width="83" height="82" viewBox="0 0 83 82" fill="none" xmlns="http://www.w3.org/2000/svg">
<path d="M67.4474 21.0897C67.4339 20.8684 67.3398 20.6597 67.1828 20.5031C67.0258 20.3465 66.8169 20.2529 66.5955 20.2401C55.2108 19.5604 46.1052 22.9815 42.2355 29.3683C39.5984 33.7228 39.7048 38.8658 42.5165 43.9158C40.5323 46.0955 39.222 48.8033 38.7442 51.7119L33.4223 46.3899C35.3775 42.7649 35.4183 39.0651 33.5174 35.925C30.7035 31.2782 24.1105 28.7951 15.875 29.2776C15.6548 29.2915 15.4473 29.3853 15.2913 29.5413C15.1353 29.6973 15.0416 29.9048 15.0277 30.125C14.5451 38.356 17.0282 44.949 21.675 47.7629C23.1664 48.6784 24.8822 49.1631 26.6322 49.163C28.5639 49.1302 30.4569 48.6162 32.1399 47.6677L38.5312 54.0658V60.9375C38.5312 61.1778 38.6267 61.4083 38.7967 61.5783C38.9666 61.7482 39.1971 61.8437 39.4375 61.8437C39.6779 61.8437 39.9084 61.7482 40.0783 61.5783C40.2483 61.4083 40.3438 61.1778 40.3438 60.9375V54.2561C40.3352 50.9104 41.5698 47.6807 43.8079 45.1936C46.4111 46.6346 49.0347 47.3596 51.5654 47.3596C53.9494 47.36 56.287 46.7005 58.3192 45.4542C64.7037 41.5822 68.118 32.4767 67.4474 21.0897ZM22.613 46.2109C18.7002 43.8456 16.5547 38.211 16.7994 31.0494C23.961 30.8047 29.5956 32.9502 31.9609 36.8629C33.4291 39.2894 33.454 42.1577 32.0652 45.0396L25.5764 38.5463C25.404 38.3901 25.1782 38.3062 24.9456 38.3119C24.713 38.3176 24.4916 38.4126 24.3271 38.5771C24.1626 38.7416 24.0677 38.963 24.0619 39.1956C24.0562 39.4281 24.1401 39.654 24.2963 39.8264L30.7919 46.3219C27.9077 47.7108 25.0395 47.6858 22.613 46.2109ZM57.379 43.9C53.7427 46.1022 49.4289 46.0727 45.1265 43.8433L58.2037 30.7639C58.3666 30.5927 58.4562 30.3646 58.4534 30.1283C58.4506 29.892 58.3556 29.6661 58.1886 29.4988C58.0216 29.3316 57.7959 29.2362 57.5596 29.2329C57.3233 29.2297 57.0951 29.3189 56.9236 29.4815L43.8441 42.561C41.6148 38.2563 41.5785 33.9516 43.7875 30.3085C47.2109 24.6444 55.3603 21.579 65.6802 22.0072C66.1107 32.3272 63.034 40.4766 57.379 43.9Z" fill="black"/>
<circle cx="41.25" cy="41" r="40" stroke="black" stroke-width="2"/>
</svg>
